<?xml version="1.0" encoding="UTF-8"?>
<svg width="1125px" height="1737px" viewBox="0 0 1125 1737" version="1.1" xmlns="http://www.w3.org/2000/svg" xmlns:xlink="http://www.w3.org/1999/xlink">
    <!-- Generator: Sketch 56.2 (81672) - https://sketch.com -->
    <title>背景</title>
    <desc>Created with Sketch.</desc>
    <g id="页面-1" stroke="none" stroke-width="1" fill="none" fill-rule="evenodd">
        <g id="微信-舆情研判-未开通" transform="translate(0.000000, -264.000000)">
            <g id="背景-2" transform="translate(0.000000, 264.000000)">
                <g id="背景">
                    <rect id="Mask" fill="#FFFFFF" x="0" y="0" width="1125" height="1737"></rect>
                    <g id="分组-5" opacity="0.2" transform="translate(737.500000, 343.500000) scale(-1, 1) translate(-737.500000, -343.500000) translate(363.000000, 0.000000)" fill="#007EFF" fill-rule="nonzero">
                        <path d="M72.8825144,30.2600348 L102.522254,27.2929348 C128.900084,24.6523697 152.424141,43.8952249 155.064706,70.2730548 C155.382991,73.4525532 155.382991,76.6558886 155.064706,79.835387 L152.097606,109.475126 C149.822379,132.203418 131.845777,150.18002 109.117486,152.455246 L79.4777464,155.422346 C53.0999165,158.062912 29.5758594,138.820056 26.9352943,112.442226 C26.6170091,109.262728 26.6170091,106.059393 26.9352943,102.879894 L29.9023943,73.2401549 C32.1776207,50.5118635 50.154223,32.5352612 72.8825144,30.2600348 Z M73.0817297,32.2500884 C51.3004504,34.4305137 34.0728732,51.6580909 31.8924479,73.4393701 L28.9253478,103.07911 C28.6203245,106.126129 28.6203245,109.195992 28.9253478,112.243011 C31.4558894,137.521765 53.9997775,155.962834 79.2785312,153.432293 L108.91827,150.465193 C130.69955,148.284768 147.927127,131.05719 150.107552,109.275911 L153.074652,79.6361717 C153.379675,76.5891524 153.379675,73.5192894 153.074652,70.4722701 C150.544111,45.1935164 128.000223,26.7524468 102.721469,29.2829884 L73.0817297,32.2500884 Z" id="矩形" fill-opacity="0.2" transform="translate(91.000000, 91.357641) rotate(-315.000000) translate(-91.000000, -91.357641) "></path>
                        <path d="M102.086441,51.5077696 L173.500127,44.3588689 C199.877957,41.7183038 223.402014,60.961159 226.042579,87.338989 C226.360865,90.5184874 226.360865,93.7218227 226.042579,96.9013211 L218.893679,168.315007 C216.618452,191.043299 198.64185,209.019901 175.913559,211.295127 L104.499873,218.444028 C78.1220428,221.084593 54.5979857,201.841738 51.9574206,175.463908 C51.6391354,172.28441 51.6391354,169.081074 51.9574206,165.901576 L59.1063213,94.4878897 C61.3815476,71.7595982 79.3581499,53.7829959 102.086441,51.5077696 Z M102.285657,53.4978232 C80.5043773,55.6782484 63.2768001,72.9058256 61.0963749,94.6871049 L53.9474741,166.100791 C53.6424508,169.14781 53.6424508,172.217673 53.9474741,175.264693 C56.4780157,200.543446 79.0219038,218.984516 104.300657,216.453974 L175.714343,209.305074 C197.495623,207.124648 214.7232,189.897071 216.903625,168.115792 L224.052526,96.7021058 C224.357549,93.6550866 224.357549,90.5852235 224.052526,87.5382042 C221.521984,62.2594505 198.978096,43.818381 173.699343,46.3489225 L102.285657,53.4978232 Z" id="矩形" fill-opacity="0.3" transform="translate(139.000000, 131.401448) rotate(-315.000000) translate(-139.000000, -131.401448) "></path>
                        <path d="M131.381758,71.1210632 L245.47752,59.6994532 C271.85535,57.0588881 295.379407,76.3017433 298.019972,102.679573 C298.338257,105.859072 298.338257,109.062407 298.019972,112.241905 L286.598362,226.337668 C284.323136,249.065959 266.346533,267.042561 243.618242,269.317788 L129.52248,280.739398 C103.14465,283.379963 79.620593,264.137108 76.9800279,237.759278 C76.6617427,234.579779 76.6617427,231.376444 76.9800279,228.196945 L88.4016379,114.101183 C90.6768643,91.3728919 108.653467,73.3962896 131.381758,71.1210632 Z M131.580973,73.1111168 C109.799694,75.2915421 92.5721167,92.5191193 90.3916915,114.300399 L78.9700815,228.396161 C78.6650582,231.44318 78.6650582,234.513043 78.9700815,237.560062 C81.500623,262.838816 104.044511,281.279886 129.323265,278.749344 L243.419027,267.327734 C265.200306,265.147309 282.427883,247.919732 284.608308,226.138452 L296.029919,112.04269 C296.334942,108.995671 296.334942,105.925808 296.029919,102.878789 C293.499377,77.6000348 270.955489,59.1589653 245.676735,61.6895068 L131.580973,73.1111168 Z" id="矩形" fill-opacity="0.4" transform="translate(187.500000, 170.219425) rotate(-315.000000) translate(-187.500000, -170.219425) "></path>
                        <path d="M161.585685,92.368798 L317.455394,76.7653874 C343.833224,74.1248223 367.357281,93.3676775 369.997846,119.745507 C370.316131,122.925006 370.316131,126.128341 369.997846,129.30784 L354.394435,285.177548 C352.119209,307.90584 334.142607,325.882442 311.414315,328.157669 L155.544606,343.761079 C129.166776,346.401644 105.642719,327.158789 103.002154,300.780959 C102.683869,297.601461 102.683869,294.398125 103.002154,291.218627 L118.605565,135.348918 C120.880791,112.620627 138.857393,94.6440243 161.585685,92.368798 Z M161.7849,94.3588516 C140.003621,96.5392768 122.776044,113.766854 120.595618,135.548133 L104.992208,291.417842 C104.687184,294.464862 104.687184,297.534725 104.992208,300.581744 C107.522749,325.860498 130.066637,344.301567 155.345391,341.771026 L311.2151,326.167615 C332.996379,323.98719 350.223956,306.759613 352.404382,284.978333 L368.007792,129.108624 C368.312816,126.061605 368.312816,122.991742 368.007792,119.944723 C365.477251,94.665969 342.933363,76.2248994 317.654609,78.755441 L161.7849,94.3588516 Z" id="矩形" fill-opacity="0.5" transform="translate(236.500000, 210.263233) rotate(-315.000000) translate(-236.500000, -210.263233) "></path>
                        <path d="M189.881002,112.799312 L388.432786,92.9231922 C414.810616,90.2826271 438.334673,109.525482 440.975239,135.903312 C441.293524,139.082811 441.293524,142.286146 440.975239,145.465644 L421.099118,344.017429 C418.823892,366.745721 400.84729,384.722323 378.118998,386.997549 L179.567214,406.873669 C153.189384,409.514235 129.665327,390.271379 127.024761,363.893549 C126.706476,360.714051 126.706476,357.510716 127.024761,354.331217 L146.900882,155.779432 C149.176108,133.051141 167.15271,115.074539 189.881002,112.799312 Z M190.080217,114.789366 C168.298938,116.969791 151.07136,134.197368 148.890935,155.978648 L129.014815,354.530433 C128.709792,357.577452 128.709792,360.647315 129.014815,363.694334 C131.545357,388.973088 154.089245,407.414157 179.367998,404.883616 L377.919783,385.007496 C399.701062,382.827071 416.92864,365.599493 419.109065,343.818214 L438.985185,145.266429 C439.290208,142.21941 439.290208,139.149547 438.985185,136.102528 C436.454643,110.823774 413.910755,92.3827043 388.632002,94.9132458 L190.080217,114.789366 Z" id="矩形" fill-opacity="0.6" transform="translate(284.000000, 249.898431) rotate(-315.000000) translate(-284.000000, -249.898431) "></path>
                        <path d="M220.084928,134.047047 L460.41066,109.989126 C486.78849,107.348561 510.312547,126.591416 512.953112,152.969246 C513.271397,156.148745 513.271397,159.35208 512.953112,162.531579 L488.895192,402.85731 C486.619965,425.585602 468.643363,443.562204 445.915072,445.83743 L205.58934,469.895351 C179.21151,472.535916 155.687453,453.293061 153.046888,426.915231 C152.728603,423.735733 152.728603,420.532397 153.046888,417.352899 L177.104808,177.027167 C179.380035,154.298876 197.356637,136.322273 220.084928,134.047047 Z M220.284144,136.037101 C198.502864,138.217526 181.275287,155.445103 179.094862,177.226382 L155.036941,417.552114 C154.731918,420.599133 154.731918,423.668996 155.036941,426.716016 C157.567483,451.994769 180.111371,470.435839 205.390125,467.905297 L445.715856,443.847377 C467.497136,441.666952 484.724713,424.439374 486.905138,402.658095 L510.963059,162.332363 C511.268082,159.285344 511.268082,156.215481 510.963059,153.168462 C508.432517,127.889708 485.888629,109.448638 460.609875,111.97918 L220.284144,136.037101 Z" id="矩形" fill-opacity="0.7" transform="translate(333.000000, 289.942239) rotate(-315.000000) translate(-333.000000, -289.942239) "></path>
                        <path d="M249.380245,154.477561 L532.388053,126.146931 C558.765883,123.506366 582.28994,142.749221 584.930505,169.127051 C585.24879,172.30655 585.24879,175.509885 584.930505,178.689383 L556.599875,461.697191 C554.324649,484.425483 536.348046,502.402085 513.619755,504.677311 L230.611947,533.007941 C204.234117,535.648506 180.71006,516.405651 178.069495,490.027821 C177.75121,486.848323 177.75121,483.644987 178.069495,480.465489 L206.400125,197.457681 C208.675351,174.72939 226.651954,156.752788 249.380245,154.477561 Z M249.57946,156.467615 C227.798181,158.64804 210.570604,175.875617 208.390179,197.656897 L180.059549,480.664704 C179.754525,483.711724 179.754525,486.781587 180.059549,489.828606 C182.59009,515.10736 205.133978,533.548429 230.412732,531.017888 L513.42054,502.687258 C535.201819,500.506832 552.429396,483.279255 554.609821,461.497976 L582.940451,178.490168 C583.245475,175.443149 583.245475,172.373286 582.940451,169.326267 C580.40991,144.047513 557.866022,125.606443 532.587268,128.136985 L249.57946,156.467615 Z" id="矩形" fill-opacity="0.8" transform="translate(381.500000, 329.577436) rotate(-315.000000) translate(-381.500000, -329.577436) "></path>
                        <path d="M284.944444,179.811399 L603.369293,147.935329 C629.747123,145.294764 653.271181,164.537619 655.911746,190.915449 C656.230031,194.094948 656.230031,197.298283 655.911746,200.477781 L624.035676,518.902631 C621.76045,541.630922 603.783847,559.607525 581.055556,561.882751 L262.630707,593.758821 C236.252877,596.399386 212.728819,577.156531 210.088254,550.778701 C209.769969,547.599202 209.769969,544.395867 210.088254,541.216368 L241.964324,222.791519 C244.23955,200.063227 262.216153,182.086625 284.944444,179.811399 Z M285.143659,181.801452 C263.36238,183.981878 246.134803,201.209455 243.954378,222.990734 L212.078308,541.415584 C211.773285,544.462603 211.773285,547.532466 212.078308,550.579485 C214.608849,575.858239 237.152738,594.299309 262.431491,591.768767 L580.856341,559.892697 C602.63762,557.712272 619.865197,540.484695 622.045622,518.703416 L653.921692,200.278566 C654.226715,197.231547 654.226715,194.161684 653.921692,191.114664 C651.391151,165.835911 628.847262,147.394841 603.568509,149.925383 L285.143659,181.801452 Z" id="矩形" fill-opacity="0.9" transform="translate(433.000000, 370.847075) rotate(-315.000000) translate(-433.000000, -370.847075) "></path>
                    </g>
                    <g id="分组-5" opacity="0.2" transform="translate(217.500000, 1237.000000) scale(1, -1) translate(-217.500000, -1237.000000) translate(0.000000, 1038.000000)" fill="#007EFF" fill-rule="nonzero">
                        <path d="M56.7501044,15.7781082 C73.5485605,14.0860402 88.5380921,26.3321874 90.2301601,43.1306436 C90.4353777,45.1679957 90.4353777,47.2208119 90.2301601,49.258164 C88.0479323,70.9228123 70.9145438,88.0562007 49.2498956,90.2384286 C32.4514395,91.9304966 17.4619079,79.6843493 15.7698399,62.8858931 C15.5646223,60.848541 15.5646223,58.7957248 15.7698399,56.7583728 C17.9520677,35.0937244 35.0854562,17.960336 56.7501044,15.7781082 Z M56.9505453,17.7680387 C36.2319296,19.8549749 19.8467067,36.2401979 17.7597704,56.9588137 C17.5679788,58.8628757 17.5679788,60.7813902 17.7597704,62.6854522 C19.341138,78.3849001 33.3500068,89.8298656 49.0494547,88.248498 C69.7680704,86.1615618 86.1532933,69.7763389 88.2402296,49.0577231 C88.4320212,47.153661 88.4320212,45.2351466 88.2402296,43.3310845 C86.658862,27.6316366 72.6499932,16.1866711 56.9505453,17.7680387 Z" id="矩形" fill-opacity="0.2" transform="translate(53.000000, 53.008268) rotate(-315.000000) translate(-53.000000, -53.008268) "></path>
                        <path d="M76.0538666,27.8759144 L86.4803873,26.825676 C108.789852,24.5784975 128.696944,40.8421934 130.944122,63.1516576 C131.216665,65.8573963 131.216665,68.5836724 130.944122,71.2894111 L129.893884,81.715932 C127.606886,104.420712 109.650914,122.376685 86.9461334,124.663683 L76.5196127,125.713921 C54.2101485,127.961099 34.3030562,111.697404 32.0558777,89.3879393 C31.7833351,86.6822007 31.7833351,83.9559245 32.0558777,81.2501859 L33.106116,70.8236649 C35.3931138,48.1188845 53.3490861,30.1629122 76.0538666,27.8759144 Z M76.2543075,29.8658449 C54.4955595,32.0575511 37.2877528,49.2653579 35.0960465,71.0241058 L34.0458082,81.4506268 C33.7866916,84.0230754 33.7866916,86.6150498 34.0458082,89.1874984 C36.1822863,110.397954 55.1087159,125.860469 76.3191718,123.72399 L86.7456925,122.673752 C108.50444,120.482046 125.712247,103.274239 127.903953,81.5154911 L128.954192,71.0889702 C129.213308,68.5165215 129.213308,65.9245472 128.954192,63.3520985 C126.817714,42.1416426 107.891284,26.6791285 86.6808282,28.8156066 L76.2543075,29.8658449 Z" id="矩形" fill-opacity="0.3" transform="translate(81.500000, 76.269798) rotate(-315.000000) translate(-81.500000, -76.269798) "></path>
                        <path d="M92.535247,39.3026309 L118.454359,36.6918612 C144.830558,34.0350503 168.366462,53.2634132 171.023273,79.6396118 C171.345497,82.8385725 171.345497,86.0618145 171.023273,89.2607752 L168.412504,115.179888 C166.125506,137.884668 148.169533,155.84064 125.464753,158.127638 L99.5456407,160.738408 C73.1694421,163.395219 49.6335377,144.166856 46.9767267,117.790657 C46.6545031,114.591697 46.6545031,111.368455 46.9767267,108.169494 L49.5874965,82.2503815 C51.8744943,59.545601 69.8304666,41.5896287 92.535247,39.3026309 Z M92.7356879,41.2925614 C70.97694,43.4842677 53.7691332,60.6920744 51.577427,82.4508224 L48.9666572,108.369935 C48.6578596,111.435606 48.6578596,114.524546 48.9666572,117.590216 C51.5127677,142.867407 74.0680095,161.294588 99.3451998,158.748477 L125.264312,156.137708 C147.02306,153.946001 164.230867,136.738195 166.422573,114.979447 L169.033343,89.0603343 C169.34214,85.9946636 169.34214,82.9057234 169.033343,79.8400527 C166.487232,54.5628623 143.93199,36.1356812 118.6548,38.6817917 L92.7356879,41.2925614 Z" id="矩形" fill-opacity="0.4" transform="translate(109.000000, 98.715135) rotate(-315.000000) translate(-109.000000, -98.715135) "></path>
                        <path d="M111.016628,52.3617355 L161.441372,47.2825725 C187.817571,44.6257616 211.353475,63.8541245 214.010286,90.2303231 C214.33251,93.4292839 214.33251,96.6525258 214.010286,99.8514866 L208.931123,150.276231 C206.644125,172.981012 188.688153,190.936984 165.983372,193.223982 L115.558628,198.303145 C89.1824293,200.959956 65.6465248,181.731593 62.9897139,155.355394 C62.6674903,152.156434 62.6674903,148.933192 62.9897139,145.734231 L68.0688769,95.3094861 C70.3558748,72.6047056 88.3118471,54.6487334 111.016628,52.3617355 Z M111.217068,54.351666 C89.4583205,56.5433723 72.2505137,73.7511791 70.0588075,95.509927 L64.9796444,145.934672 C64.6708468,149.000343 64.6708468,152.089283 64.9796444,155.154953 C67.5257549,180.432144 90.0809967,198.859325 115.358187,196.313214 L165.782932,191.234051 C187.54168,189.042345 204.749486,171.834538 206.941193,150.07579 L212.020356,99.6510456 C212.329153,96.5853749 212.329153,93.4964347 212.020356,90.430764 C209.474245,65.1535737 186.919003,46.7263926 161.641813,49.272503 L111.217068,54.351666 Z" id="矩形" fill-opacity="0.5" transform="translate(138.500000, 122.792859) rotate(-315.000000) translate(-138.500000, -122.792859) "></path>
                        <path d="M127.589911,63.7884521 L203.427904,56.1494738 C229.804102,53.4926629 253.340007,72.7210258 255.996818,99.0972244 C256.319042,102.296185 256.319042,105.519427 255.996818,108.718388 L248.35784,184.556381 C246.070842,207.261161 228.114869,225.217134 205.410089,227.504132 L129.572096,235.14311 C103.195898,237.799921 79.659993,218.571558 77.0031821,192.195359 C76.6809585,188.996398 76.6809585,185.773157 77.0031821,182.574196 L84.6421604,106.736203 C86.9291582,84.0314222 104.885131,66.0754499 127.589911,63.7884521 Z M127.790352,65.7783826 C106.031604,67.9700888 88.8237972,85.1778956 86.6320909,106.936644 L78.9931126,182.774637 C78.684315,185.840307 78.684315,188.929248 78.9931126,191.994918 C81.5392231,217.272109 104.094465,235.69929 129.371655,233.153179 L205.209648,225.514201 C226.968396,223.322495 244.176203,206.114688 246.367909,184.35594 L254.006887,108.517947 C254.315685,105.452276 254.315685,102.363336 254.006887,99.2976653 C251.460777,74.020475 228.905535,55.5932939 203.628345,58.1394043 L127.790352,65.7783826 Z" id="矩形" fill-opacity="0.6" transform="translate(166.500000, 145.646292) rotate(-315.000000) translate(-166.500000, -145.646292) "></path>
                        <path d="M145.071291,76.0313627 L245.414917,65.9239911 C271.791115,63.2671802 295.32702,82.4955431 297.983831,108.871742 C298.306054,112.070702 298.306054,115.293944 297.983831,118.492905 L287.876459,218.836531 C285.589461,241.541311 267.633489,259.497283 244.928709,261.784281 L144.585083,271.891653 C118.208885,274.548464 94.6729802,255.320101 92.0161693,228.943902 C91.6939457,225.744941 91.6939457,222.521699 92.0161693,219.322739 L102.123541,118.979113 C104.410539,96.2743328 122.366511,78.3183605 145.071291,76.0313627 Z M145.271732,78.0212932 C123.512984,80.2129994 106.305178,97.4208062 104.113471,119.179554 L94.0060998,219.52318 C93.6973022,222.58885 93.6973022,225.677791 94.0060998,228.743461 C96.5522102,254.020652 119.107452,272.447833 144.384642,269.901722 L244.728268,259.794351 C266.487016,257.602644 283.694822,240.394838 285.886529,218.63609 L295.9939,118.292464 C296.302698,115.226793 296.302698,112.137853 295.9939,109.072183 C293.44779,83.7949923 270.892548,65.3678112 245.615358,67.9139216 L145.271732,78.0212932 Z" id="矩形" fill-opacity="0.7" transform="translate(195.000000, 168.907822) rotate(-315.000000) translate(-195.000000, -168.907822) "></path>
                        <path d="M162.552672,88.2742733 L287.40193,75.6985084 C313.778128,73.0416975 337.314033,92.2700604 339.970844,118.646259 C340.293067,121.84522 340.293067,125.068462 339.970844,128.267422 L327.395079,253.11668 C325.108081,275.821461 307.152109,293.777433 284.447328,296.064431 L159.59807,308.640196 C133.221872,311.297007 109.685967,292.068644 107.029156,265.692445 C106.706933,262.493484 106.706933,259.270242 107.029156,256.071282 L119.604921,131.222024 C121.891919,108.517243 139.847891,90.5612711 162.552672,88.2742733 Z M162.753113,90.2642038 C140.994365,92.45591 123.786558,109.663717 121.594852,131.422465 L109.019087,256.271723 C108.710289,259.337393 108.710289,262.426333 109.019087,265.492004 C111.565197,290.769195 134.120439,309.196376 159.39763,306.650265 L284.246887,294.0745 C306.005635,291.882794 323.213442,274.674987 325.405148,252.916239 L337.980913,128.066982 C338.289711,125.001311 338.289711,121.912371 337.980913,118.8467 C335.434803,93.5695096 312.879561,75.1423285 287.60237,77.6884389 L162.753113,90.2642038 Z" id="矩形" fill-opacity="0.8" transform="translate(223.500000, 192.169352) rotate(-315.000000) translate(-223.500000, -192.169352) "></path>
                        <path d="M182.66644,102.965766 L328.390866,88.2872957 C354.767065,85.6304848 378.302969,104.858848 380.95978,131.235046 C381.282004,134.434007 381.282004,137.657249 380.95978,140.85621 L366.28131,286.580636 C363.994312,309.285416 346.03834,327.241389 323.33356,329.528386 L177.609134,344.206857 C151.232935,346.863668 127.697031,327.635305 125.04022,301.259106 C124.717996,298.060145 124.717996,294.836903 125.04022,291.637943 L139.71869,145.913517 C142.005688,123.208736 159.96166,105.252764 182.66644,102.965766 Z M182.866881,104.955696 C161.108133,107.147403 143.900327,124.35521 141.70862,146.113957 L127.03015,291.838384 C126.721352,294.904054 126.721352,297.992994 127.03015,301.058665 C129.576261,326.335856 152.131502,344.763037 177.408693,342.216926 L323.133119,327.538456 C344.891867,325.34675 362.099673,308.138943 364.29138,286.380195 L378.96985,140.655769 C379.278648,137.590098 379.278648,134.501158 378.96985,131.435487 C376.423739,106.158297 353.868498,87.7311158 328.591307,90.2772262 L182.866881,104.955696 Z" id="矩形" fill-opacity="0.9" transform="translate(253.000000, 216.247076) rotate(-315.000000) translate(-253.000000, -216.247076) "></path>
                    </g>
                </g>
            </g>
        </g>
    </g>
</svg>