<?xml version="1.0" encoding="UTF-8"?>
<svg width="48px" height="48px" viewBox="0 0 48 48" version="1.1" xmlns="http://www.w3.org/2000/svg" xmlns:xlink="http://www.w3.org/1999/xlink">
    <!-- Generator: Sketch 52 (66869) - http://www.bohemiancoding.com/sketch -->
    <title>分组</title>
    <desc>Created with Sketch.</desc>
    <g id="页面-1" stroke="none" stroke-width="1" fill="none" fill-rule="evenodd">
        <g id="微信-舆情研判-日报001" transform="translate(-1032.000000, -438.000000)">
            <g id="分组-4-copy" transform="translate(0.000000, 396.000000)">
                <g id="跳转" transform="translate(1032.000000, 42.000000)">
                    <g id="分组-2" transform="translate(24.000000, 24.000000) scale(-1, 1) translate(-24.000000, -24.000000) ">
                        <g id="分组">
                            <path d="M25.6783597,16.8738738 C24.8507414,17.8009063 23.428397,17.881425 22.5014645,17.0537175 C22.4381808,16.9972081 22.3781435,16.9371643 22.3216403,16.8738738 L24,18.7538395 L25.6783597,16.8738738 Z M38.0585975,34.125 L41.9125158,34.125 C42.1196225,34.125 42.2875158,33.9571068 42.2875158,33.75 C42.2875158,33.6578782 42.2536066,33.5689795 42.1922558,33.5002591 L25.1189065,14.3760453 C25.0812376,14.3338516 25.0412128,14.2938224 24.9990237,14.2561495 C24.3810687,13.7043445 23.432839,13.7580236 22.8810935,14.3760453 L5.80774424,33.5002591 C5.66981613,33.6547552 5.68324718,33.8918119 5.83774332,34.02974 C5.90646372,34.0910909 5.99536245,34.125 6.08748424,34.125 L9.94140253,34.125 C10.1550665,34.125 10.3585875,34.0338695 10.5008825,33.8744818 L24,18.7538395 L37.4991175,33.8744818 C37.6414125,34.0338695 37.8449335,34.125 38.0585975,34.125 Z M25.6783597,16.8738738 C24.8507414,17.8009063 23.428397,17.881425 22.5014645,17.0537175 C22.4381808,16.9972081 22.3781435,16.9371643 22.3216403,16.8738738 L24,18.7538395 L25.6783597,16.8738738 Z M38.0585975,34.125 L41.9125158,34.125 C42.1196225,34.125 42.2875158,33.9571068 42.2875158,33.75 C42.2875158,33.6578782 42.2536066,33.5689795 42.1922558,33.5002591 L25.1189065,14.3760453 C25.0812376,14.3338516 25.0412128,14.2938224 24.9990237,14.2561495 C24.3810687,13.7043445 23.432839,13.7580236 22.8810935,14.3760453 L5.80774424,33.5002591 C5.66981613,33.6547552 5.68324718,33.8918119 5.83774332,34.02974 C5.90646372,34.0910909 5.99536245,34.125 6.08748424,34.125 L9.94140253,34.125 C10.1550665,34.125 10.3585875,34.0338695 10.5008825,33.8744818 L24,18.7538395 L37.4991175,33.8744818 C37.6414125,34.0338695 37.8449335,34.125 38.0585975,34.125 Z" id="三角形" fill="#999999" fill-rule="nonzero" transform="translate(24.000000, 24.000000) rotate(-90.000000) translate(-24.000000, -24.000000) "></path>
                            <rect id="矩形" stroke="#979797" stroke-width="0.5" fill="#D8D8D8" opacity="0" x="0.25" y="0.25" width="47.5" height="47.5"></rect>
                        </g>
                    </g>
                </g>
            </g>
        </g>
    </g>
</svg>