<?xml version="1.0" encoding="UTF-8"?>
<svg width="72px" height="72px" viewBox="0 0 72 72" version="1.1" xmlns="http://www.w3.org/2000/svg" xmlns:xlink="http://www.w3.org/1999/xlink">
    <!-- Generator: Sketch 52 (66869) - http://www.bohemiancoding.com/sketch -->
    <title>复制</title>
    <desc>Created with Sketch.</desc>
    <g id="页面-1" stroke="none" stroke-width="1" fill="none" fill-rule="evenodd">
        <g id="微信-舆情研判-详情-" transform="translate(-906.000000, -294.000000)">
            <g id="分组-7" transform="translate(0.000000, 264.000000)">
                <g id="复制-2" transform="translate(906.000000, 30.000000)">
                    <g id="复制">
                        <g id="分组">
                            <rect id="矩形-copy" fill="#333333" x="25.9453125" y="30.375" width="25.6640625" height="4.5" rx="0.5625"></rect>
                            <rect id="矩形-copy-2" fill="#333333" x="25.9453125" y="41.625" width="19.265625" height="4.5" rx="0.5625"></rect>
                            <rect id="矩形" stroke="#333333" stroke-width="5.0625" x="19.40625" y="19.40625" width="38.8125" height="45.5625" rx="2.25"></rect>
                            <path d="M12.9375,12.9375 L12.9375,59.625 C12.9375,59.9356602 12.6856602,60.1875 12.375,60.1875 L8.4375,60.1875 C8.12683983,60.1875 7.875,59.9356602 7.875,59.625 L7.875,12.9375 L7.875,10.125 C7.875,8.88235931 8.88235931,7.875 10.125,7.875 L54.5625,7.875 C54.8731602,7.875 55.125,8.12683983 55.125,8.4375 L55.125,12.375 C55.125,12.6856602 54.8731602,12.9375 54.5625,12.9375 L12.9375,12.9375 Z" id="合并形状" fill="#333333"></path>
                            <rect id="矩形" stroke="#979797" stroke-width="0.75" fill="#D8D8D8" opacity="0" x="0.375" y="0.375" width="71.25" height="71.25"></rect>
                        </g>
                    </g>
                </g>
            </g>
        </g>
    </g>
</svg>