<?xml version="1.0" encoding="UTF-8"?>
<svg width="72px" height="72px" viewBox="0 0 72 72" version="1.1" xmlns="http://www.w3.org/2000/svg" xmlns:xlink="http://www.w3.org/1999/xlink">
    <!-- Generator: Sketch 52 (66869) - http://www.bohemiancoding.com/sketch -->
    <title>分组</title>
    <desc>Created with Sketch.</desc>
    <g id="页面-1" stroke="none" stroke-width="1" fill="none" fill-rule="evenodd">
        <g id="微信-舆情研判-列表" transform="translate(-790.000000, -836.000000)">
            <g id="分组-3" transform="translate(760.000000, 672.000000)">
                <g id="分组-2" transform="translate(30.000000, 164.000000)">
                    <g id="分组">
                        <path d="M22.359375,14.625 L22.359375,10.125 C22.359375,8.88235931 23.3667343,7.875 24.609375,7.875 L47.390625,7.875 C48.6332657,7.875 49.640625,8.88235931 49.640625,10.125 L49.640625,14.625 L63.5625,14.625 C63.8731602,14.625 64.125,14.8768398 64.125,15.1875 L64.125,19.125 C64.125,19.4356602 63.8731602,19.6875 63.5625,19.6875 L8.4375,19.6875 C8.12683983,19.6875 7.875,19.4356602 7.875,19.125 L7.875,15.1875 C7.875,14.8768398 8.12683983,14.625 8.4375,14.625 L22.359375,14.625 Z" id="合并形状" fill="#FFFFFF"></path>
                        <path d="M51.1875,59.0625 L56.25,59.0625 L51.1875,64.125 L51.1875,59.0625 Z M51.1875,59.0625 L51.1875,18 C51.1875,17.3786797 51.6911797,16.875 52.3125,16.875 L55.6875,16.875 C55.9981602,16.875 56.25,17.1268398 56.25,17.4375 L56.25,63.5625 C56.25,63.8731602 55.9981602,64.125 55.6875,64.125 L16.3125,64.125 C16.0018398,64.125 15.75,63.8731602 15.75,63.5625 L15.75,17.4375 C15.75,17.1268398 16.0018398,16.875 16.3125,16.875 L19.6875,16.875 C20.3088203,16.875 20.8125,17.3786797 20.8125,18 L20.8125,59.0625 L51.1875,59.0625 Z M20.8125,59.0625 L20.8125,64.125 L15.75,59.0625 L20.8125,59.0625 Z M20.8125,59.0625 L20.8125,64.125 L15.75,59.0625 L20.8125,59.0625 Z M20.8125,59.0625 L51.1875,59.0625 L51.1875,18 C51.1875,17.3786797 51.6911797,16.875 52.3125,16.875 L55.6875,16.875 C55.9981602,16.875 56.25,17.1268398 56.25,17.4375 L56.25,63.5625 C56.25,63.8731602 55.9981602,64.125 55.6875,64.125 L16.3125,64.125 C16.0018398,64.125 15.75,63.8731602 15.75,63.5625 L15.75,17.4375 C15.75,17.1268398 16.0018398,16.875 16.3125,16.875 L19.6875,16.875 C20.3088203,16.875 20.8125,17.3786797 20.8125,18 L20.8125,59.0625 Z M51.1875,59.0625 L56.25,59.0625 L51.1875,64.125 L51.1875,59.0625 Z" id="矩形" fill="#FFFFFF" fill-rule="nonzero"></path>
                        <rect id="矩形" fill="#FFFFFF" x="28.125" y="27" width="4.5" height="28.125" rx="0.5625"></rect>
                        <rect id="矩形-copy" fill="#FFFFFF" x="39.375" y="27" width="4.5" height="28.125" rx="0.5625"></rect>
                        <rect id="矩形" stroke="#979797" stroke-width="0.75" fill="#D8D8D8" opacity="0" x="0.375" y="0.375" width="71.25" height="71.25"></rect>
                    </g>
                </g>
            </g>
        </g>
    </g>
</svg>