<?xml version="1.0" encoding="UTF-8"?>
<svg width="72px" height="72px" viewBox="0 0 72 72" version="1.1" xmlns="http://www.w3.org/2000/svg" xmlns:xlink="http://www.w3.org/1999/xlink">
    <!-- Generator: Sketch 52 (66869) - http://www.bohemiancoding.com/sketch -->
    <title>分组</title>
    <desc>Created with Sketch.</desc>
    <g id="页面-1" stroke="none" stroke-width="1" fill="none" fill-rule="evenodd">
        <g id="微信-舆情研判-详情-" transform="translate(-45.000000, -294.000000)">
            <g id="分组-7" transform="translate(0.000000, 264.000000)">
                <g id="分组-2" transform="translate(45.000000, 30.000000)">
                    <g id="分组">
                        <path d="M38.5175396,25.3108107 C37.2761122,26.7013594 35.1425955,26.8221375 33.7521968,25.5805762 C33.6572713,25.4958121 33.5672153,25.4057465 33.4824604,25.3108107 L36,28.1307592 L38.5175396,25.3108107 Z M57.0878962,51.1875 L62.8687736,51.1875 C63.1794338,51.1875 63.4312736,50.9356602 63.4312736,50.625 C63.4312736,50.4868173 63.38041,50.3534692 63.2883836,50.2503886 L37.6783597,21.5640679 C37.6218565,21.5007774 37.5618192,21.4407336 37.4985355,21.3842243 C36.571603,20.5565167 35.1492586,20.6370354 34.3216403,21.5640679 L8.71161635,50.2503886 C8.5047242,50.4821328 8.52487077,50.8377179 8.75661498,51.04461 C8.85969558,51.1366363 8.99304367,51.1875 9.13122636,51.1875 L14.9121038,51.1875 C15.2325997,51.1875 15.5378813,51.0508042 15.7513238,50.8117228 L36,28.1307592 L56.2486762,50.8117228 C56.4621187,51.0508042 56.7674003,51.1875 57.0878962,51.1875 Z M38.5175396,25.3108107 C37.2761122,26.7013594 35.1425955,26.8221375 33.7521968,25.5805762 C33.6572713,25.4958121 33.5672153,25.4057465 33.4824604,25.3108107 L36,28.1307592 L38.5175396,25.3108107 Z M57.0878962,51.1875 L62.8687736,51.1875 C63.1794338,51.1875 63.4312736,50.9356602 63.4312736,50.625 C63.4312736,50.4868173 63.38041,50.3534692 63.2883836,50.2503886 L37.6783597,21.5640679 C37.6218565,21.5007774 37.5618192,21.4407336 37.4985355,21.3842243 C36.571603,20.5565167 35.1492586,20.6370354 34.3216403,21.5640679 L8.71161635,50.2503886 C8.5047242,50.4821328 8.52487077,50.8377179 8.75661498,51.04461 C8.85969558,51.1366363 8.99304367,51.1875 9.13122636,51.1875 L14.9121038,51.1875 C15.2325997,51.1875 15.5378813,51.0508042 15.7513238,50.8117228 L36,28.1307592 L56.2486762,50.8117228 C56.4621187,51.0508042 56.7674003,51.1875 57.0878962,51.1875 Z" id="三角形" fill="#333333" fill-rule="nonzero" transform="translate(36.000000, 36.000000) rotate(-90.000000) translate(-36.000000, -36.000000) "></path>
                        <rect id="矩形" stroke="#979797" stroke-width="0.5" fill="#D8D8D8" opacity="0" x="0.25" y="0.25" width="71.5" height="71.5"></rect>
                    </g>
                </g>
            </g>
        </g>
    </g>
</svg>