<?xml version="1.0" encoding="UTF-8"?>
<svg width="72px" height="72px" viewBox="0 0 72 72" version="1.1" xmlns="http://www.w3.org/2000/svg" xmlns:xlink="http://www.w3.org/1999/xlink">
    <!-- Generator: Sketch 52 (66869) - http://www.bohemiancoding.com/sketch -->
    <title>分组 2</title>
    <desc>Created with Sketch.</desc>
    <g id="页面-1" stroke="none" stroke-width="1" fill="none" fill-rule="evenodd">
        <g id="微信-舆情研判-日报001" transform="translate(-63.000000, -690.000000)">
            <g id="分组-4-copy-3" transform="translate(0.000000, 660.000000)">
                <g id="分组-3" transform="translate(63.000000, 30.000000)">
                    <g id="分组-2">
                        <g id="分组">
                            <path d="M13.78125,7.03125 L13.78125,61.5531433 L44.5160063,61.5531433 L58.21875,47.8870365 L58.21875,7.03125 L13.78125,7.03125 Z" id="矩形" stroke="#5090F1" stroke-width="5.0625"></path>
                            <path d="M45.5625,48.9375 L55.6875,48.9375 L60.75,43.875 L42.75,43.875 C41.5073593,43.875 40.5,44.8823593 40.5,46.125 L40.5,64.125 L45.5625,59.0625 L45.5625,48.9375 Z M45.5625,48.9375 L40.5,48.9375 L45.5625,43.875 L45.5625,48.9375 Z M45.5625,48.9375 L55.6875,48.9375 L60.75,43.875 L42.75,43.875 C41.5073593,43.875 40.5,44.8823593 40.5,46.125 L40.5,64.125 L45.5625,59.0625 L45.5625,48.9375 Z" id="矩形" fill="#5090F1" fill-rule="nonzero"></path>
                            <rect id="矩形" fill="#5090F1" x="20.25" y="15.75" width="31.5" height="4.5" rx="0.5625"></rect>
                            <rect id="矩形-copy" fill="#5090F1" x="20.25" y="24.75" width="23.625" height="4.5" rx="0.5625"></rect>
                            <path d="M28.125,50.625 C32.4742424,50.625 36,47.0992424 36,42.75 L28.125,42.75 L28.125,34.875 C23.7757576,34.875 20.25,38.4007576 20.25,42.75 C20.25,47.0992424 23.7757576,50.625 28.125,50.625 Z" id="椭圆形" fill="#5090F1"></path>
                            <path d="M37.265625,41.765625 C37.265625,37.3387176 33.6769074,33.75 29.25,33.75 L29.25,41.765625 L37.265625,41.765625 Z" id="椭圆形" fill="#5090F1"></path>
                            <rect id="矩形" stroke="#979797" stroke-width="0.5" fill="#D8D8D8" opacity="0" x="0.25" y="0.25" width="71.5" height="71.5"></rect>
                        </g>
                    </g>
                </g>
            </g>
        </g>
    </g>
</svg>