<?xml version="1.0" encoding="UTF-8"?>
<svg width="512px" height="364px" viewBox="0 0 512 364" version="1.1" xmlns="http://www.w3.org/2000/svg" xmlns:xlink="http://www.w3.org/1999/xlink">
    <!-- Generator: Sketch 52 (66869) - http://www.bohemiancoding.com/sketch -->
    <title>暂无数据</title>
    <desc>Created with Sketch.</desc>
    <g id="页面-1" stroke="none" stroke-width="1" fill="none" fill-rule="evenodd">
        <g id="微信-舆情研判-暂无数据" transform="translate(-307.000000, -712.000000)">
            <g id="暂无数据-2" transform="translate(307.000000, 701.000000)">
                <g id="暂无数据">
                    <g id="分组-18" transform="translate(198.429903, 168.764971) rotate(-13.000000) translate(-198.429903, -168.764971) translate(77.959315, 23.264971)">
                        <path d="M198.776471,5.9348749 L26.4851139,5.9348749 C26.4603232,5.93488462 26.4603232,5.93488462 26.4355325,5.9349332 C14.7921027,5.96231624 5.37543625,15.4233794 5.40281928,27.0668092 L5.96698977,266.955464 C5.99432727,278.579536 15.4251804,287.988235 27.0492844,287.988235 L216.790328,287.988235 C216.815118,287.988226 216.815118,287.988226 216.839909,287.988177 C228.483339,287.960794 237.900005,278.499731 237.872622,266.856301 L237.343833,42.0117647 L198.776471,42.0117647 L198.776471,5.9348749 Z" id="合并形状" stroke="#5090F1" stroke-width="6.02352941" fill-opacity="0.4" fill="#5090F1"></path>
                        <rect id="矩形-copy-101" fill="#FFFFFF" x="15.0588235" y="117" width="6.02352941" height="123"></rect>
                        <rect id="矩形" fill="#5090F1" x="45.1764706" y="63" width="9.03529412" height="9"></rect>
                        <polygon id="矩形-copy-108" fill="#5090F1" points="45.1764706 81 126.494118 81 126.494118 90 45.1764706 90"></polygon>
                        <rect id="矩形-copy-97" fill="#5090F1" x="63.2470588" y="63" width="9.03529412" height="9"></rect>
                        <rect id="矩形-copy-106" fill="#5090F1" x="99.3882353" y="63" width="9.03529412" height="9"></rect>
                        <rect id="矩形-copy-105" fill="#5090F1" x="81.3176471" y="63" width="9.03529412" height="9"></rect>
                        <rect id="矩形-copy-107" fill="#5090F1" x="117.458824" y="63" width="9.03529412" height="9"></rect>
                        <path d="M46.6823529,118.505882 L46.6823529,142.494118 L182.211765,142.494118 L182.211765,118.505882 L46.6823529,118.505882 Z" id="矩形-copy-100" stroke="#5090F1" stroke-width="3.01176471" fill="#FFFFFF"></path>
                        <path d="M46.6823529,166.505882 L46.6823529,190.494118 L182.211765,190.494118 L182.211765,166.505882 L46.6823529,166.505882 Z" id="矩形-copy-102" stroke="#5090F1" stroke-width="3.01176471" fill="#FFFFFF"></path>
                        <path d="M46.6823529,214.505882 L46.6823529,238.494118 L182.211765,238.494118 L182.211765,214.505882 L46.6823529,214.505882 Z" id="矩形-copy-104" stroke="#5090F1" stroke-width="3.01176471" fill="#FFFFFF"></path>
                    </g>
                    <g id="分组-19" transform="translate(144.564706, 12.000000)">
                        <path d="M216.847059,3.01176471 L24.0941176,3.01176471 C12.4506556,3.01176471 3.01176471,12.4506556 3.01176471,24.0941176 L3.01176471,299.905882 C3.01176471,311.549344 12.4506556,320.988235 24.0941176,320.988235 L234.917647,320.988235 C246.561109,320.988235 256,311.549344 256,299.905882 L256,42.0117647 L216.847059,42.0117647 L216.847059,3.01176471 Z" id="合并形状" stroke="#5090F1" stroke-width="6.02352941" fill="#FFFFFF"></path>
                        <rect id="矩形-copy-96" stroke="#5090F1" stroke-width="3.01176471" x="169.131232" y="60.4764451" width="39.1529412" height="2.98823529" rx="1.49411765"></rect>
                        <rect id="矩形-copy-96" stroke="#5090F1" stroke-width="3.01176471" x="51.6724081" y="60.4764451" width="39.1529412" height="2.98823529" rx="1.49411765"></rect>
                        <ellipse id="椭圆形" stroke="#5090F1" stroke-width="6.02352941" cx="129.505882" cy="108" rx="15.0588235" ry="14.9882353"></ellipse>
                        <rect id="矩形" fill="#5090F1" x="42.1647059" y="150" width="27.1058824" height="27"></rect>
                        <rect id="矩形-copy-101" fill="#5090F1" x="42.1647059" y="198" width="27.1058824" height="27"></rect>
                        <rect id="矩形-copy-103" fill="#5090F1" x="42.1647059" y="246" width="27.1058824" height="27"></rect>
                        <polygon id="矩形-copy-100" fill="#5090F1" points="84.3294118 150 222.870588 150 222.870588 177 84.3294118 177"></polygon>
                        <polygon id="矩形-copy-102" fill="#5090F1" points="84.3294118 198 222.870588 198 222.870588 225 84.3294118 225"></polygon>
                        <polygon id="矩形-copy-104" fill="#5090F1" points="84.3294118 246 222.870588 246 222.870588 273 84.3294118 273"></polygon>
                        <polygon id="矩形" fill-opacity="0.5" fill="#5090F1" points="216.847059 0 252.122426 35.1375732 259.011765 42 216.847059 42"></polygon>
                        <path d="M217.65625,2.15808105 L256.741912,41.6931152" id="路径-2" stroke="#5090F1" stroke-width="6.02352941" stroke-linejoin="bevel"></path>
                    </g>
                    <g id="修饰" transform="translate(0.000000, 246.000000)" fill="#5090F1">
                        <ellipse id="椭圆形" cx="502.964706" cy="15" rx="9.03529412" ry="9"></ellipse>
                        <ellipse id="椭圆形-copy-16" cx="39.1529412" cy="39" rx="9.03529412" ry="9"></ellipse>
                        <ellipse id="椭圆形-copy-17" cx="27.1058824" cy="69" rx="12.0470588" ry="12"></ellipse>
                        <ellipse id="椭圆形-copy-2" cx="451.764706" cy="9" rx="9.03529412" ry="9"></ellipse>
                        <ellipse id="椭圆形-copy-13" cx="457.788235" cy="54" rx="6.02352941" ry="6"></ellipse>
                        <ellipse id="椭圆形-copy-14" cx="478.870588" cy="18" rx="6.02352941" ry="6"></ellipse>
                        <ellipse id="椭圆形-copy-15" cx="6.02352941" cy="33" rx="6.02352941" ry="6"></ellipse>
                        <ellipse id="椭圆形" fill-opacity="0.4" cx="257.505882" cy="117" rx="218.352941" ry="12"></ellipse>
                    </g>
                </g>
            </g>
        </g>
    </g>
</svg>