<?xml version="1.0" encoding="UTF-8"?>
<svg width="48px" height="48px" viewBox="0 0 48 48" version="1.1" xmlns="http://www.w3.org/2000/svg" xmlns:xlink="http://www.w3.org/1999/xlink">
    <!-- Generator: Sketch 52 (66869) - http://www.bohemiancoding.com/sketch -->
    <title>收起</title>
    <desc>Created with Sketch.</desc>
    <g id="页面-1" stroke="none" stroke-width="1" fill="none" fill-rule="evenodd">
        <g id="微信-舆情研判-列表" transform="translate(-279.000000, -294.000000)">
            <g id="筛选" transform="translate(0.000000, 264.000000)">
                <g id="全部时间">
                    <g id="分组-4" transform="translate(123.000000, 29.000000)">
                        <g id="收起-2" transform="translate(156.000000, 1.000000)">
                            <g id="收起" transform="translate(24.000000, 24.000000) scale(1, -1) translate(-24.000000, -24.000000) ">
                                <path d="M25.6783597,17.2507344 C24.8507414,18.1776669 23.428397,18.258177 22.5014645,17.4305587 C22.4381808,17.3740554 22.3781435,17.3140181 22.3216403,17.2507344 L24,19.1304973 L25.6783597,17.2507344 Z M38.0585733,34.5 L41.9124556,34.5 C42.1195624,34.5 42.2874556,34.3321068 42.2874556,34.125 C42.2874556,34.0328713 42.2535414,33.9439664 42.1921822,33.8752441 L25.1189065,14.7531753 C25.0812376,14.7109862 25.0412128,14.6709613 24.9990237,14.6332924 C24.3810687,14.0815469 23.432839,14.1352203 22.8810935,14.7531753 L5.80781778,33.8752441 C5.6698814,34.0297328 5.68329974,34.2667902 5.83778849,34.4047266 C5.90651077,34.4660858 5.99541568,34.5 6.0875444,34.5 L9.94142665,34.5 C10.1550766,34.5 10.3585857,34.4088814 10.5008799,34.2495118 L24,19.1304973 L37.4991201,34.2495118 C37.6414143,34.4088814 37.8449234,34.5 38.0585733,34.5 Z M25.6783597,17.2507344 C24.8507414,18.1776669 23.428397,18.258177 22.5014645,17.4305587 C22.4381808,17.3740554 22.3781435,17.3140181 22.3216403,17.2507344 L24,19.1304973 L25.6783597,17.2507344 Z M38.0585733,34.5 L41.9124556,34.5 C42.1195624,34.5 42.2874556,34.3321068 42.2874556,34.125 C42.2874556,34.0328713 42.2535414,33.9439664 42.1921822,33.8752441 L25.1189065,14.7531753 C25.0812376,14.7109862 25.0412128,14.6709613 24.9990237,14.6332924 C24.3810687,14.0815469 23.432839,14.1352203 22.8810935,14.7531753 L5.80781778,33.8752441 C5.6698814,34.0297328 5.68329974,34.2667902 5.83778849,34.4047266 C5.90651077,34.4660858 5.99541568,34.5 6.0875444,34.5 L9.94142665,34.5 C10.1550766,34.5 10.3585857,34.4088814 10.5008799,34.2495118 L24,19.1304973 L37.4991201,34.2495118 C37.6414143,34.4088814 37.8449234,34.5 38.0585733,34.5 Z" id="三角形" fill="#999999" fill-rule="nonzero"></path>
                                <rect id="矩形" stroke="#979797" stroke-width="0.5" fill="#D8D8D8" opacity="0" x="0.25" y="0.25" width="47.5" height="47.5"></rect>
                            </g>
                        </g>
                    </g>
                </g>
            </g>
        </g>
    </g>
</svg>