<?xml version="1.0" encoding="UTF-8"?>
<svg width="108px" height="108px" viewBox="0 0 108 108" version="1.1" xmlns="http://www.w3.org/2000/svg" xmlns:xlink="http://www.w3.org/1999/xlink">
    <!-- Generator: Sketch 52 (66869) - http://www.bohemiancoding.com/sketch -->
    <title>分组 7</title>
    <desc>Created with Sketch.</desc>
    <defs>
        <rect id="path-1" x="0" y="0" width="108" height="108" rx="54"></rect>
    </defs>
    <g id="页面-1" stroke="none" stroke-width="1" fill="none" fill-rule="evenodd">
        <g id="微信-舆情研判-详情-" transform="translate(-45.000000, -969.000000)">
            <g id="分组-6" transform="translate(0.000000, 939.000000)">
                <g id="分组-8" transform="translate(45.000000, 30.000000)">
                    <g id="分组-7">
                        <mask id="mask-2" fill="white">
                            <use xlink:href="#path-1"></use>
                        </mask>
                        <use id="Mask" fill="#E1EDF9" xlink:href="#path-1"></use>
                        <g id="分组-copy" mask="url(#mask-2)">
                            <g transform="translate(6.000000, 17.000000)">
                                <polygon id="路径-32-copy" fill="#DCDCDC" fill-rule="evenodd" points="27 68 27 91.2255335 40.9170723 107.130775 63.3452413 108.84375 66.9330815 94.0258463 68.559082 68"></polygon>
                                <polygon id="路径-32" fill="#E8C291" fill-rule="evenodd" points="35.6679687 52 35 63.2840197 43.559082 71.0115088 57.3525391 71.84375 62.4631348 64.5322266 61.3076172 52"></polygon>
                                <path d="M28.3846141,39.885312 L27.324101,40.9848902 C25.4627237,41.1609091 24.0125425,39.7958074 22.9653874,37.0595346 C21.2137883,32.4825114 21.7622329,29.4876839 25.2986238,29 L31,30.2631579 C28.380253,30.6244325 27.1089165,40.0059468 28.3846141,39.885312 Z" id="路径-25" fill="#E8C291" fill-rule="nonzero"></path>
                                <path d="M70.3846141,39.885312 L69.324101,40.9848902 C67.4627237,41.1609091 66.0125425,39.7958074 64.9653874,37.0595346 C63.2137883,32.4825114 63.7622329,29.4876839 67.2986238,29 L73,30.2631579 C70.380253,30.6244325 69.1089165,40.0059468 70.3846141,39.885312 Z" id="路径-25-copy" fill="#E8C291" fill-rule="nonzero" transform="translate(68.500000, 35.000000) scale(-1, 1) translate(-68.500000, -35.000000) "></path>
                                <path d="M42.2542044,76.1842994 L43.4822736,75.005088 C45.4827841,72.8980953 46.9886929,71.8443159 48,71.84375 C49.0113071,71.8431841 50.5360994,72.8952674 52.5743768,75 L53.791756,76.1893874 L51.4311592,78.4171147 L55,81.8439717 L48,121 L41,81.8439717 L44.574186,78.4119821 L42.2542044,76.1842994 Z" id="路径-31" fill="#2778CB" fill-rule="nonzero"></path>
                                <path d="M29.2741045,61.6880565 L29.9111328,61.5735222 L35.3200684,56 L49,71.9058974 L37.6546888,81 L37.1577155,80.1369234 C34.433423,75.4057379 32.6673549,70.7995236 31,66.4311523 L29.2741045,61.6880565 Z" id="路径-29" fill="#FFFFFF" fill-rule="nonzero"></path>
                                <path d="M47,61.5735222 L47.1539924,61 L52.0901444,56 L66.7131913,71.9058974 L55.2547549,81 L54.7528262,80.1369234 C52.0013695,75.4057379 50.0194488,70.8744736 48.3354685,66.5061024 L47,61.5735222 Z" id="路径-29-copy" fill="#FFFFFF" fill-rule="nonzero" transform="translate(56.856596, 68.500000) scale(-1, 1) translate(-56.856596, -68.500000) "></path>
                                <path d="M65.9047279,60.56408 L66.4639268,60 C70.9642607,64.6449971 77.0663761,68.7535698 82.9209066,72.3807368 C93.0935747,78.6832006 96.6802831,89.1641506 96.0842034,114.972656 L94.3718931,114.93471 C94.9557991,89.6532864 74.9047279,107.40918 66.4639268,104.708008 C56.9708259,101.670086 70.503928,65.3111213 65.9047279,60.56408 Z" id="路径-30" fill="#041B30" fill-rule="nonzero"></path>
                                <path d="M2.90472791,61.56408 L3.46392678,61 C7.96426065,65.6449971 14.0663761,69.7535698 19.9209066,73.3807368 C30.0935747,79.6832006 33.6802831,90.1641506 33.0842034,115.972656 L31.3718931,115.93471 C31.9557991,90.6532864 11.9047279,108.40918 3.46392678,105.708008 C-6.02917406,102.670086 7.50392797,66.3111213 2.90472791,61.56408 Z" id="路径-30-copy" fill="#041B30" fill-rule="nonzero" transform="translate(16.573535, 88.486328) scale(-1, 1) translate(-16.573535, -88.486328) "></path>
                                <path d="M50,68.5846642 C56.5838084,62.5191068 61.3862094,58.3242187 64.407203,56 C57.8227575,68.7856445 74.6306212,117.884863 76,120.42143 L74.5380765,121.226074 C73.2107393,118.767384 72.7834224,118.122025 64.9339336,106.49793 C64.7515254,106.227807 64.5767953,105.968818 64.407203,105.71718 C58.0394335,96.2687999 55.0168088,91.3176547 54.4126969,88.7758972 C54.1916486,87.8458523 54.4513696,87.2556035 55.3744864,85.8084803 C55.688634,85.3160071 55.8329227,85.0711518 55.9530637,84.8081915 C56.1113348,84.4617734 56.157048,84.2083928 56.1113012,84.0096702 C56.0500399,83.7435532 55.762506,83.5046778 54.9093107,83.0332452 C54.8529715,83.0021342 54.8529715,83.0021342 54.7957902,82.9705567 C53.4555941,82.2299814 52.8845202,81.7465265 52.6609915,80.7504795 C52.1036255,78.2668493 51.2167148,74.2119573 50,68.5846642 Z" id="路径-32-copy-3" fill="#082E50" fill-rule="nonzero" transform="translate(63.000000, 88.613037) scale(-1, 1) translate(-63.000000, -88.613037) "></path>
                                <path d="M21,68.5846642 C27.5838084,62.5191068 32.3862094,58.3242187 35.407203,56 C28.8227575,68.7856445 45.6306212,117.884863 47,120.42143 L45.5380765,121.226074 C44.2107393,118.767384 43.7834224,118.122025 35.9339336,106.49793 C35.7515254,106.227807 35.5767953,105.968818 35.407203,105.71718 C29.0394335,96.2687999 26.0168088,91.3176547 25.4126969,88.7758972 C25.1916486,87.8458523 25.4513696,87.2556035 26.3744864,85.8084803 C26.688634,85.3160071 26.8329227,85.0711518 26.9530637,84.8081915 C27.1113348,84.4617734 27.157048,84.2083928 27.1113012,84.0096702 C27.0500399,83.7435532 26.762506,83.5046778 25.9093107,83.0332452 C25.8529715,83.0021342 25.8529715,83.0021342 25.7957902,82.9705567 C24.4555941,82.2299814 23.8845202,81.7465265 23.6609915,80.7504795 C23.1036255,78.2668493 22.2167148,74.2119573 21,68.5846642 Z" id="路径-32-copy-4" fill="#082E50" fill-rule="nonzero"></path>
                                <path d="M58.0380859,9 C58.0380859,8.68623326 61.3568389,10.3205106 67.9943449,13.902832 C67.998115,30.2219689 68,38.5384207 68,38.8521874 L68,42.4363494 L67.7872701,44.09375 C66.9929252,49.595097 64,50.737793 61,53.940918 C58.1098825,57.0267205 55,58.5410156 52,59.3321481 C50.9909379,59.7773827 49.6576045,60 48,60 C46.3423955,60 45.0090621,59.7773827 44,59.3321481 C41.398015,58.2956553 39.7138876,57.685817 36,54.722686 C31,50.7334282 28.7252619,49.2919843 27.9516602,44.09375 C27.1780584,38.8955157 27.0222437,40.8409256 27.000324,40.0359693 C26.9875126,39.5654957 26.53262,22.9684466 27.0002758,22.955558 C27.4679316,22.9426694 29.6159611,6.82377478 29.593528,7.70751953 C29.593528,10.946609 39.0750473,11.3774358 58.0380859,9 Z" id="路径-24" fill="#FCDCA3" fill-rule="nonzero"></path>
                                <path d="M42.2127299,48.0360028 C42.4085172,48.1035111 42.6042733,48.1674702 42.8,48.2278811 L42.8,48.2907752 C42.6221443,48.239211 42.4449962,48.1848338 42.2685574,48.127643 L42.2127299,48.0360028 Z M42.8,48.2056675 L42.2685574,48.127643 C42.1788549,48.0985669 42.0893357,48.0687635 42,48.0382329 L42,47.7547919 L42.5898925,47.1982343 C42.6598106,47.2203283 42.7298464,47.2419657 42.8,47.2631464 L42.8,48.2278811 C44.2044967,48.6613778 45.6074857,48.9121724 47.0097318,48.9806843 C45.5654476,48.9155454 44.1619743,48.685641 42.8,48.2907752 L42.8,48.2056675 Z M53.2,48.2056675 L53.2,47.2440202 C53.2648398,47.2256233 53.3296797,47.2068907 53.3945195,47.1878222 L54,47.772456 L54,48.0324596 C53.9208342,48.057467 53.8416651,48.0819899 53.7624927,48.1060285 L53.2,48.2278811 L53.2,48.2686476 C51.424944,48.756058 49.6483357,49 47.8710937,49 C47.8587738,49 47.8464567,48.9999883 47.8341425,48.9999648 C49.5126891,48.9964682 51.3013216,48.7322431 53.2,48.2056675 Z M53.2,48.2056675 C53.4025768,48.1494853 53.6064062,48.0903166 53.8114884,48.0281595 L53.7624927,48.1060285 C53.5750132,48.1629515 53.3875152,48.2171581 53.2,48.2686476 L53.2,48.2056675 Z M42,47 C43.8710937,47.6666667 45.828125,48 47.8710937,48 C49.9140625,48 51.9570312,47.6666667 54,47 L54,48.0324596 C51.8003906,48.6991262 49.7338542,50 47.8003906,50 C45.8669271,50 43.9334635,48.7048996 42,48.0382329 L42,47 Z" id="矩形" fill="#E8C291" fill-rule="nonzero"></path>
                                <path d="M50.2222222,39.5306677 C50.2222222,38.8231108 50.8148148,38.8231108 52,39.5306677 C52,41.4410715 50.209139,42 48,42 C45.790861,42 44,41.4410715 44,39.5306677 C45.1851852,38.8231108 45.7777778,38.8231108 45.7777778,39.5306677 C45.7777778,40.5920031 46.7727006,40.4626258 48,40.4626258 C49.2272994,40.4626258 50.2222222,40.5920031 50.2222222,39.5306677 Z" id="椭圆形" fill="#E8C291" fill-rule="nonzero"></path>
                                <path d="M24.3588867,27 C23.4545689,23.7167969 22.6875,22.480957 22.6875,19.8959961 C22.6875,17.3110352 22.4690684,17.1309081 22.6875,13.6079102 C22.9059316,10.0849122 23.5651503,8.68300229 25.0703125,8.11572266 C26.5754747,7.54844302 27.1880933,7.31133186 27.8486328,7 C28.5091724,6.68866814 27.1618303,5.52550574 30.3153076,4 C33.4687849,2.47449426 51.5391702,-2.84790776 60,3 C68.4608298,8.84790776 70.1357979,10.9067371 70.5424262,15.3515625 C70.9490545,19.7963879 71.4603532,24.4495033 70.2466388,26.5744603 C69.4155463,28.8581534 68.5957567,31.3333333 67.7872701,34 C67.2729651,30.0279942 66.6772083,26.1883132 66,22.480957 C66,12.2792969 61.5086206,15.4125977 56.960365,14.5102539 C52.4121094,13.6079102 52,12.2792969 48,12.2792969 C44,12.2792969 40.1679243,12.2792969 37.7915039,12.2792969 C36.8915175,12.2792969 34.399452,11.7687174 30.3153076,10.7475586 C30.1177889,15.6959313 29.5402078,19.1134117 28.5825643,21 C27.3719225,23.1955522 26.7666016,27.2144324 26.7666016,33.0566406 C26.0005267,31.0188802 25.1979551,29 24.3588867,27 Z" id="路径-26" fill="#041B30" fill-rule="evenodd"></path>
                                <path d="M36,29.0144544 C37.8065978,27.6618485 39.4732644,27.6618485 41,29.0144544 C39.5483047,32.9951819 37.8816381,32.9951819 36,29.0144544 Z" id="路径-27" fill="#041B30" fill-rule="evenodd"></path>
                                <path d="M56,29.0144544 C57.8065978,27.6618485 59.4732644,27.6618485 61,29.0144544 C59.5483047,32.9951819 57.8816381,32.9951819 56,29.0144544 Z" id="路径-27-copy" fill="#041B30" fill-rule="evenodd"></path>
                                <path d="M35.3798118,27 L35,26.1016761 C35.5842458,25.7656141 35.937674,24.5411621 36.5332813,24.3538872 C38.6269628,23.6955777 40.7883555,23.9560878 43,25.1323444 L42.6437267,26.0436937 C40.6179082,24.9662682 38.6658955,24.7249794 36.7703954,25.3167836 C36.2234001,25.4875639 35.9178103,26.6905397 35.3798118,27 Z" id="路径-28" fill="#545358" fill-rule="nonzero" transform="translate(39.000000, 25.500000) rotate(16.000000) translate(-39.000000, -25.500000) "></path>
                                <path d="M53.3798118,27 L53,26.1016761 C53.5842458,25.7656141 53.937674,24.5411621 54.5332813,24.3538872 C56.6269628,23.6955777 58.7883555,23.9560878 61,25.1323444 L60.6437267,26.0436937 C58.6179082,24.9662682 56.6658955,24.7249794 54.7703954,25.3167836 C54.2234001,25.4875639 53.9178103,26.6905397 53.3798118,27 Z" id="路径-28-copy" fill="#545358" fill-rule="nonzero" transform="translate(57.000000, 25.500000) scale(-1, 1) rotate(16.000000) translate(-57.000000, -25.500000) "></path>
                                <path d="M24.0001419,32.3000082 C23.995125,32.1393189 24.1237858,32.005063 24.2875137,32.0001392 C24.4512416,31.9952155 24.5880363,32.1214884 24.5930531,32.2821778 C24.6611347,34.4628242 25.1064986,35.8614134 25.889783,36.4824696 C26.0172017,36.5834983 26.0370464,36.7667745 25.9341072,36.8918285 C25.8311681,37.0168825 25.6444261,37.0363588 25.5170074,36.9353301 C24.5655212,36.1809089 24.0730201,34.6342935 24.0001419,32.3000082 Z" id="路径-34" fill="#FCDCA3" fill-rule="nonzero"></path>
                                <path d="M69.0001419,32.3000082 C68.995125,32.1393189 69.1237858,32.005063 69.2875137,32.0001392 C69.4512416,31.9952155 69.5880363,32.1214884 69.5930531,32.2821778 C69.6611347,34.4628242 70.1064986,35.8614134 70.889783,36.4824696 C71.0172017,36.5834983 71.0370464,36.7667745 70.9341072,36.8918285 C70.8311681,37.0168825 70.6444261,37.0363588 70.5170074,36.9353301 C69.5655212,36.1809089 69.0730201,34.6342935 69.0001419,32.3000082 Z" id="路径-34-copy" fill="#FCDCA3" fill-rule="nonzero" transform="translate(70.000000, 34.500000) scale(-1, 1) translate(-70.000000, -34.500000) "></path>
                            </g>
                        </g>
                    </g>
                </g>
            </g>
        </g>
    </g>
</svg>